<svg width="128" height="128" viewBox="0 0 128 128" fill="none" xmlns="http://www.w3.org/2000/svg">
  <rect width="128" height="128" rx="16" fill="#0A0A14"/>
  <path d="M38 82.5L45.5 45H82.5L90 82.5H38Z" fill="url(#paint0_linear)"/>
  <path d="M64 32C48.536 32 36 44.536 36 60C36 75.464 48.536 88 64 88C79.464 88 92 75.464 92 60C92 44.536 79.464 32 64 32ZM64 84C50.767 84 40 73.233 40 60C40 46.767 50.767 36 64 36C77.233 36 88 46.767 88 60C88 73.233 77.233 84 64 84Z" fill="url(#paint1_linear)"/>
  <path d="M59 48L69 72" stroke="white" stroke-width="4" stroke-linecap="round"/>
  <defs>
    <linearGradient id="paint0_linear" x1="40" y1="48" x2="90" y2="80" gradientUnits="userSpaceOnUse">
      <stop offset="0" stop-color="#00D4FF"/>
      <stop offset="1" stop-color="#8000FF"/>
    </linearGradient>
    <linearGradient id="paint1_linear" x1="36" y1="40" x2="92" y2="80" gradientUnits="userSpaceOnUse">
      <stop offset="0" stop-color="#00D4FF"/>
      <stop offset="1" stop-color="#8000FF"/>
    </linearGradient>
  </defs>
</svg>